<svg xmlns="http://www.w3.org/2000/svg" xmlns:xlink="http://www.w3.org/1999/xlink" xmlns:fi="http://pattern.flaticon.com/" x="0" y="0" width="700" height="350" viewBox="0 0 700 350"><rect x="0px" y="0px" width="100%" height="100%" opacity="0" fill="#ae97ff"/><defs><g transform="matrix(0.1171875 0 0 0.1171875 6 67)" id="L1_14"><path d="M146.125,119.398c5.444,0,10.615-2.628,13.815-7.031c5.53-7.612,3.831-18.304-3.789-23.842     c-7.347-5.333-18.5-3.55-23.834,3.789c-5.521,7.62-3.823,18.304,3.789,23.834C139.034,118.272,142.507,119.398,146.125,119.398z"/><path d="M65.877,299.196c-3.686,2.688-6.118,6.639-6.827,11.145s0.375,9.011,3.063,12.689c3.2,4.403,8.354,7.031,13.807,7.031     c3.618,0,7.083-1.118,10.035-3.26c7.586-5.53,9.284-16.222,3.755-23.842C84.395,295.629,73.207,293.845,65.877,299.196z      M75.921,321.527l-0.009-8.525l0.017-0.009L75.921,321.527z"/><path d="M503.467,494.933H256C124.245,494.933,17.067,387.746,17.067,256C17.067,124.245,124.245,17.067,256,17.067     c131.746,0,238.933,107.179,238.933,238.933c0,84.326-43.128,160.785-115.354,204.527c-4.036,2.441-5.325,7.689-2.884,11.725     c2.449,4.036,7.723,5.316,11.716,2.876C465.792,428.271,512,346.342,512,256C512,114.842,397.158,0,256,0S0,114.842,0,256     s114.842,256,256,256h247.467c4.71,0,8.533-3.823,8.533-8.533C512,498.748,508.177,494.933,503.467,494.933z"/><path d="M126.157,282.095c29.653,0,55.748-18.97,64.922-47.198c11.622-35.797-8.03-74.385-43.836-86.016     c-6.852-2.227-13.952-3.354-21.103-3.354c-29.662,0-55.74,18.961-64.913,47.181c-11.631,35.797,8.03,74.394,43.827,86.033     C111.906,280.96,119.006,282.095,126.157,282.095z M77.466,197.982c6.869-21.171,26.428-35.388,48.674-35.388     c5.359,0,10.684,0.845,15.838,2.517c26.846,8.721,41.583,37.666,32.87,64.512c-6.886,21.171-26.453,35.405-48.691,35.405     c-5.359,0-10.684-0.853-15.829-2.526C83.482,253.781,68.736,224.836,77.466,197.982z"/><path d="M254.558,461.952c1.792,0,3.567-0.282,5.282-0.836c8.934-2.91,13.85-12.552,10.957-21.513     c-2.85-8.755-12.74-13.807-21.513-10.948c-4.326,1.408-7.851,4.412-9.933,8.482c-2.065,4.062-2.432,8.687-1.024,13.013     C240.614,457.207,247.125,461.952,254.558,461.952z"/><path d="M135.62,421.675c11.75,8.542,25.617,13.047,40.09,13.047c21.803,0,42.462-10.522,55.279-28.143     c22.11-30.464,15.334-73.233-15.113-95.36c-11.75-8.533-25.609-13.039-40.073-13.039c-21.82,0-42.47,10.522-55.27,28.143     c-10.726,14.754-15.061,32.794-12.211,50.799C111.172,395.136,120.866,410.957,135.62,421.675z M134.332,336.358     c9.609-13.227,25.105-21.111,41.472-21.111c10.846,0,21.231,3.379,30.046,9.779c22.827,16.589,27.904,48.683,11.332,71.518     c-9.609,13.227-25.114,21.112-41.472,21.112c-10.846,0-21.239-3.388-30.054-9.788c-11.068-8.038-18.347-19.908-20.489-33.408     C123.034,360.951,126.285,347.418,134.332,336.358z"/><path d="M336.299,434.722h0.009c14.464,0,28.322-4.514,40.064-13.047c30.447-22.118,37.231-64.896,15.104-95.351     c-12.8-17.63-33.468-28.143-55.279-28.143c-14.473,0-28.331,4.506-40.073,13.039c-30.455,22.127-37.231,64.896-15.104,95.351     C293.82,424.201,314.487,434.714,336.299,434.722z M306.15,325.026c8.815-6.4,19.191-9.779,30.046-9.779     c16.358,0,31.863,7.893,41.472,21.103c16.597,22.844,11.511,54.929-11.332,71.518c-8.806,6.4-19.191,9.788-30.029,9.788h-0.009     c-16.367,0-31.872-7.893-41.481-21.12C278.238,373.7,283.315,341.615,306.15,325.026z"/><path d="M221.867,256c0,18.816,15.3,34.133,34.133,34.133c18.825,0,34.133-15.317,34.133-34.133     c0-18.825-15.309-34.133-34.133-34.133C237.167,221.867,221.867,237.175,221.867,256z M273.067,256     c0,9.412-7.663,17.067-17.067,17.067c-9.412,0-17.067-7.654-17.067-17.067c0-9.412,7.654-17.067,17.067-17.067     C265.404,238.933,273.067,246.588,273.067,256z"/><path d="M368.188,121.088c7.424,0,13.952-4.745,16.222-11.793c2.91-8.943-1.997-18.594-10.982-21.513     c-8.789-2.833-18.645,2.227-21.47,10.982c-2.901,8.943,2.022,18.586,10.965,21.487     C364.629,120.806,366.404,121.088,368.188,121.088z"/><path d="M320.913,234.897c9.173,28.228,35.26,47.189,64.913,47.189c7.151,0,14.251-1.135,21.111-3.354     c17.348-5.641,31.462-17.69,39.731-33.929c8.286-16.247,9.737-34.748,4.105-52.096c-9.173-28.228-35.26-47.189-64.913-47.189     c-7.151,0-14.251,1.126-21.112,3.354C328.951,160.512,309.291,199.1,320.913,234.897z M370.022,165.103     c5.154-1.673,10.479-2.517,15.838-2.517c22.238,0,41.796,14.225,48.674,35.396c4.233,13.013,3.149,26.889-3.063,39.066     c-6.221,12.186-16.794,21.222-29.798,25.446c-5.163,1.681-10.487,2.526-15.846,2.526c-22.238,0-41.796-14.225-48.683-35.396     C328.431,202.778,343.177,173.833,370.022,165.103z"/><path d="M256,51.2c-37.649,0-68.267,30.618-68.267,68.267c0,37.64,30.618,68.267,68.267,68.267     c37.641,0,68.267-30.626,68.267-68.267C324.267,81.818,293.641,51.2,256,51.2z M256,170.667c-28.237,0-51.2-22.972-51.2-51.2     c0-28.237,22.963-51.2,51.2-51.2c28.228,0,51.2,22.963,51.2,51.2C307.2,147.695,284.228,170.667,256,170.667z"/><path d="M418.133,315.733c0,9.412,7.654,17.067,17.067,17.067c9.404,0,17.067-7.654,17.067-17.067     c0-9.412-7.663-17.067-17.067-17.067C425.788,298.667,418.133,306.321,418.133,315.733z"/></g><g transform="matrix(0.1171875 0 0 0.1171875 188 69.99999918460844)" id="L1_15"><path d="M503.467,136.466H191.309l308.215-51.703c4.625-0.768,7.757-5.129,7.014-9.754L495.761,7.254     c-0.358-2.244-1.596-4.25-3.439-5.581c-1.843-1.323-4.173-1.86-6.383-1.493L129.271,59.248c-4.651,0.768-7.791,5.163-7.023,9.813     c0.777,4.651,5.12,7.799,9.813,7.023l35.618-5.905l35.49,46.993l-25.114,4.207c-4.651,0.785-7.782,5.18-7.006,9.83     c0.469,2.765,2.27,4.898,4.591,6.093c-2.918,1.348-4.975,4.267-4.975,7.697c0,4.71,3.823,8.533,8.533,8.533h34.133l-38.4,51.2     h-29.867c-4.71,0-8.533,3.823-8.533,8.533c0,4.71,3.823,8.533,8.533,8.533h349.867v247.467c0,14.114-11.486,25.6-25.6,25.6     H42.667c-14.114,0-25.6-11.486-25.6-25.6v-384H89.6l44.8,59.733l-44.8,59.733H42.667c-4.71,0-8.533,3.823-8.533,8.533     c0,4.71,3.823,8.533,8.533,8.533h51.2c2.688,0,5.214-1.263,6.827-3.413l51.2-68.267c2.278-3.029,2.278-7.211,0-10.24     l-51.2-68.267c-1.613-2.15-4.139-3.413-6.827-3.413H8.533C3.823,68.199,0,72.022,0,76.733v392.533     c0,23.526,19.14,42.667,42.667,42.667h426.667c23.526,0,42.667-19.14,42.667-42.667V144.999     C512,140.289,508.186,136.466,503.467,136.466z M480.256,18.424l8.098,50.91l-33.28,5.581l-34.842-46.558L480.256,18.424z      M401.263,31.497l34.867,46.592l-60.783,10.197l-34.816-46.729L401.263,31.497z M321.596,44.698l34.842,46.763l-54.997,9.224     l-34.987-46.857L321.596,44.698z M186.684,67.039l60.817-10.069l35.012,46.891l-60.365,10.129L186.684,67.039z M196.267,204.733     l38.4-51.2h55.467l-38.4,51.2H196.267z M273.067,204.733l38.4-51.2h55.467l-38.4,51.2H273.067z M349.867,204.733l38.4-51.2     h55.467l-38.4,51.2H349.867z M494.933,204.733h-68.267l38.4-51.2h29.867V204.733z"/><path d="M315.733,247.399c-4.719,0-8.533,3.823-8.533,8.533v128H59.733c-4.71,0-8.533,3.823-8.533,8.533     c0,4.71,3.823,8.533,8.533,8.533h392.533c4.719,0,8.533-3.823,8.533-8.533c0-4.71-3.814-8.533-8.533-8.533h-128v-128     C324.267,251.222,320.452,247.399,315.733,247.399z"/></g><g transform="matrix(0.1171875 0 0 0.1171875 187 242)" id="L1_16"><path d="M251.29,239.838c-4.215-2.108-9.344-0.401-11.452,3.814c-0.154,0.299-15.13,29.414-52.105,29.414     c-36.582,0-51.482-28.211-52.113-29.449c-2.116-4.198-7.228-5.88-11.435-3.78c-4.215,2.108-5.922,7.228-3.814,11.452     c0.794,1.587,19.977,38.844,67.362,38.844c47.394,0,66.577-37.257,67.371-38.844C257.212,247.066,255.505,241.946,251.29,239.838     z"/><path d="M161.101,137.745c2.534-14.37-13.611-28.39-37.564-32.614c-4.326-0.759-8.644-1.152-12.843-1.152     c-18.398,0-31.599,7.441-33.63,18.961c-2.526,14.37,13.619,28.39,37.572,32.614c4.326,0.768,8.644,1.152,12.834,1.152     C145.877,156.706,159.078,149.265,161.101,137.745z M93.875,125.901c0.171-0.99,5.018-4.855,16.819-4.855     c3.209,0,6.528,0.299,9.873,0.896c16.273,2.867,24.107,10.761,23.731,12.851c-0.171,0.981-5.018,4.847-16.828,4.847     c-3.2,0-6.519-0.299-9.865-0.887C101.333,135.876,93.5,127.991,93.875,125.901z"/><path d="M375.467,59.733c0-50.79-24.764-59.733-76.8-59.733c-16.375,0-29.116,5.248-42.607,10.795     C239.198,17.732,220.075,25.6,187.733,25.6c-32.333,0-51.456-7.868-68.318-14.805C105.924,5.248,93.184,0,76.8,0     C24.772,0,0,8.943,0,59.733c0,112.956,66.27,332.8,187.733,332.8C309.205,392.533,375.467,172.689,375.467,59.733z      M187.733,375.467c-105.873,0-170.667-204.416-170.667-315.733c0-35.482,10.052-42.667,59.733-42.667     c13.013,0,23.202,4.198,36.122,9.515c17.425,7.159,39.108,16.085,74.812,16.085c35.712,0,57.395-8.926,74.82-16.085     c12.919-5.316,23.108-9.515,36.113-9.515c49.69,0,59.733,7.185,59.733,42.667C358.4,171.051,293.615,375.467,187.733,375.467z"/><path d="M264.772,103.987c-4.19,0-8.508,0.393-12.834,1.152c-10.257,1.809-19.678,5.598-26.513,10.667     c-8.516,6.323-12.45,14.114-11.059,21.948c2.031,11.511,15.232,18.961,33.63,18.961c4.19,0,8.508-0.384,12.834-1.152     c23.953-4.224,40.107-18.244,37.572-32.623C296.371,111.428,283.17,103.987,264.772,103.987z M257.86,138.761     c-3.337,0.589-6.665,0.887-9.865,0.887c-11.802,0-16.648-3.866-16.828-4.855c-0.068-0.452,0.862-2.628,4.429-5.282     c4.685-3.473,11.716-6.221,19.311-7.561c3.345-0.597,6.664-0.896,9.865-0.896c11.81,0,16.657,3.866,16.819,4.847     C281.967,127.991,274.133,135.893,257.86,138.761z"/><path d="M435.2,119.467c-16.299,0-26.897,4.378-39.159,9.455c-3.396,1.408-7.023,2.91-11.051,4.437     c-4.412,1.664-6.639,6.588-4.966,10.999s6.63,6.63,10.999,4.958c4.216-1.596,7.996-3.157,11.537-4.625     c11.887-4.907,19.738-8.158,32.64-8.158c49.69,0,59.733,7.185,59.733,42.667c0,111.317-64.785,315.733-170.667,315.733     c-39.561,0-80.58-31.787-109.713-85.026c-2.261-4.139-7.45-5.649-11.58-3.396c-4.139,2.27-5.649,7.45-3.388,11.588     C231.757,476.894,278.374,512,324.267,512C445.739,512,512,292.156,512,179.2C512,128.41,487.236,119.467,435.2,119.467z"/><path d="M324.267,358.4c-47.386,0-66.569,37.265-67.362,38.852c-2.108,4.215-0.401,9.344,3.814,11.452s9.344,0.401,11.452-3.814     c0.154-0.299,15.13-29.423,52.096-29.423c36.591,0,51.49,28.211,52.122,29.449c1.502,2.978,4.506,4.685,7.62,4.685     c1.289,0,2.586-0.282,3.814-0.896c4.216-2.108,5.922-7.236,3.814-11.452C390.844,395.665,371.661,358.4,324.267,358.4z"/><path d="M434.168,242.406c-2.031-11.511-15.232-18.953-33.63-18.953c-4.19,0-8.508,0.393-12.834,1.152     c-10.257,1.809-19.678,5.598-26.505,10.667c-8.516,6.323-12.45,14.114-11.068,21.948c2.031,11.511,15.232,18.961,33.63,18.961     c4.19,0,8.508-0.384,12.834-1.152C420.548,270.805,436.702,256.785,434.168,242.406z M383.761,259.115     c-11.802,0-16.649-3.866-16.828-4.855c-0.068-0.452,0.862-2.628,4.429-5.282c4.685-3.473,11.716-6.221,19.311-7.561     c3.345-0.597,6.665-0.896,9.865-0.896c11.81,0,16.657,3.866,16.828,4.847c0.375,2.091-7.458,9.992-23.74,12.86     C390.289,258.816,386.961,259.115,383.761,259.115z"/></g><g transform="matrix(0.1171875 0 0 0.1171875 8 243)" id="L1_17"><path d="M298.667,102.4c-4.702,0-8.533-3.831-8.533-8.533c0-4.71-3.823-8.533-8.533-8.533c-4.71,0-8.533,3.823-8.533,8.533     c0,14.114,11.486,25.6,25.6,25.6c4.71,0,8.533-3.823,8.533-8.533S303.377,102.4,298.667,102.4z"/><path d="M366.933,119.467c4.71,0,8.533-3.823,8.533-8.533c0-4.702,3.831-8.533,8.533-8.533c4.71,0,8.533-3.823,8.533-8.533     c0-4.71-3.823-8.533-8.533-8.533c-14.114,0-25.6,11.486-25.6,25.6C358.4,115.644,362.223,119.467,366.933,119.467z"/><path d="M76.8,119.467c4.71,0,8.533-3.823,8.533-8.533c0-9.412,7.654-17.067,17.067-17.067c1.843,0,3.738,0.358,5.786,1.101     c2.705,0.998,5.717,0.538,8.021-1.186c2.304-1.715,3.584-4.489,3.405-7.356c-0.009-0.213-0.12-0.879-0.145-1.092     c0-9.412,7.654-17.067,17.067-17.067c2.313,0,4.557,0.461,6.673,1.357c2.987,1.271,6.434,0.742,8.9-1.382     c2.466-2.108,3.507-5.444,2.705-8.593c-0.828-3.217-1.212-5.905-1.212-8.448c0-18.825,15.309-34.133,34.133-34.133     c14.046,0,26.479,8.491,31.676,21.623c1.126,2.842,3.686,4.873,6.724,5.308c3.021,0.444,6.059-0.794,7.936-3.2     c3.302-4.233,8.183-6.664,13.397-6.664c6.869,0,13.047,4.087,15.727,10.419c1.289,3.063,4.241,5.086,7.561,5.205     c3.405,0.188,6.4-1.698,7.902-4.651c8.806-17.297,26.283-28.041,45.611-28.041c28.237,0,51.2,22.963,51.2,51.021     c-0.009,0.196-0.043,0.845-0.043,1.05c0,2.56,1.152,4.992,3.14,6.605c1.988,1.63,4.608,2.261,7.108,1.749     c2.244-0.461,4.548-0.691,6.861-0.691c18.825,0,34.133,15.309,34.133,34.133c0,4.71,3.823,8.533,8.533,8.533     s8.533-3.823,8.533-8.533c0-28.237-22.963-51.2-51.2-51.2h-0.529C387.789,26.103,359.023,0,324.267,0     c-21.274,0-40.858,9.745-53.649,26.103c-6.178-5.7-14.379-9.037-23.151-9.037c-6.34,0-12.425,1.758-17.69,5.001     C220.373,8.38,204.86,0,187.733,0c-28.237,0-51.2,22.963-51.2,51.2c-15.881,0-29.269,10.906-33.058,25.617     C84.25,76.194,68.267,91.75,68.267,110.933C68.267,115.644,72.09,119.467,76.8,119.467z"/><path d="M336.333,92.399c1.664,1.664,3.849,2.5,6.033,2.5c2.185,0,4.369-0.836,6.033-2.5     c6.443-6.451,10.001-15.019,10.001-24.132c0-9.122-3.558-17.69-10.001-24.132c-13.295-13.312-34.953-13.312-48.273-0.009     c-3.328,3.328-3.328,8.73,0,12.066c3.336,3.337,8.738,3.337,12.066,0c6.656-6.639,17.485-6.647,24.141,0.009     c3.226,3.217,5.001,7.501,5.001,12.066c0,4.557-1.775,8.841-5.001,12.066C332.996,83.669,332.996,89.071,336.333,92.399z"/><path d="M441.54,139.358c-1.613-1.8-3.925-2.825-6.34-2.825H196.267c-4.71,0-8.533,3.823-8.533,8.533     c0,4.71,3.823,8.533,8.533,8.533h229.453L392.61,468.156c-1.707,12.356-9.463,26.778-25.677,26.778H145.067     c-16.247,0-23.987-14.413-25.643-26.487L86.281,153.6h58.786c18.825,0,34.133-15.309,34.133-34.133s-15.309-34.133-34.133-34.133     c-4.71,0-8.533,3.823-8.533,8.533c0,4.71,3.823,8.533,8.533,8.533c9.412,0,17.067,7.654,17.067,17.067     s-7.654,17.067-17.067,17.067H76.8c-2.415,0-4.727,1.024-6.34,2.825c-1.621,1.801-2.398,4.198-2.15,6.596l34.167,324.54     c3.405,24.823,20.523,41.506,42.59,41.506h221.867c22.025,0,39.134-16.674,42.624-41.779l34.133-324.267     C443.938,143.556,443.162,141.158,441.54,139.358z"/><path d="M144.316,170.701c-4.693,0.41-8.158,4.557-7.748,9.25l25.6,290.133c0.393,4.437,4.113,7.782,8.491,7.782     c0.247,0,0.503-0.009,0.759-0.034c4.693-0.41,8.158-4.557,7.748-9.25l-25.6-290.133     C153.156,173.756,149.069,170.351,144.316,170.701z"/><path d="M187.733,324.267c0,24.141,12.621,45.338,31.59,57.481l2.543,87.834c0.137,4.625,3.925,8.286,8.533,8.286h0.247     c4.71-0.145,8.422-4.07,8.286-8.781l-2.313-79.394c6.153,1.826,12.646,2.842,19.379,2.842c6.733,0,13.227-1.015,19.379-2.842     l-2.313,79.394c-0.137,4.71,3.576,8.636,8.286,8.781h0.247c4.608,0,8.397-3.661,8.533-8.286l2.543-87.834     c18.97-12.143,31.59-33.34,31.59-57.481c0-22.536-11.025-42.487-27.904-54.929l2.304-89.924c0.119-4.702-3.601-8.619-8.32-8.747     c-4.762-0.401-8.627,3.601-8.747,8.32l-2.074,81.28C272.179,257.553,264.277,256,256,256c-8.277,0-16.179,1.553-23.526,4.267     l-2.074-81.28c-0.12-4.642-3.917-8.32-8.533-8.32h-0.213c-4.719,0.128-8.439,4.045-8.32,8.747l2.304,89.924     C198.758,281.779,187.733,301.73,187.733,324.267z M256,273.067c28.237,0,51.2,22.963,51.2,51.2c0,28.237-22.963,51.2-51.2,51.2     s-51.2-22.963-51.2-51.2C204.8,296.03,227.763,273.067,256,273.067z"/><path d="M341.342,477.867c4.378,0,8.098-3.345,8.491-7.782l25.6-290.133c0.41-4.693-3.055-8.841-7.748-9.25     c-4.642-0.358-8.832,3.063-9.25,7.748l-25.6,290.133c-0.41,4.693,3.055,8.841,7.748,9.25     C340.838,477.858,341.094,477.867,341.342,477.867z"/><path d="M213.333,110.933c4.71,0,8.533-3.823,8.533-8.533c0-9.412,7.654-17.067,17.067-17.067c4.71,0,8.533-3.823,8.533-8.533     s-3.823-8.533-8.533-8.533c-18.825,0-34.133,15.309-34.133,34.133C204.8,107.11,208.623,110.933,213.333,110.933z"/><path d="M196.267,34.133c-14.114,0-25.6,11.486-25.6,25.6c0,4.71,3.823,8.533,8.533,8.533s8.533-3.823,8.533-8.533     c0-4.702,3.831-8.533,8.533-8.533c4.71,0,8.533-3.823,8.533-8.533C204.8,37.956,200.977,34.133,196.267,34.133z"/></g><g transform="matrix(0.1171875 0 0 0.1171875 102 160.00000041484827)" id="L1_18"><path d="M136.533,51.2c0-9.412-7.654-17.067-17.067-17.067c-9.404,0-17.067,7.654-17.067,17.067     c0,9.412,7.663,17.067,17.067,17.067C128.879,68.267,136.533,60.612,136.533,51.2z"/><path d="M119.637,93.867c-4.71,0-8.482,3.823-8.482,8.533c0,4.71,3.857,8.533,8.576,8.533c4.702,0,8.533-3.823,8.533-8.533     c0-4.71-3.831-8.533-8.533-8.533H119.637z"/><path d="M119.467,170.667c9.412,0,17.067-7.654,17.067-17.067c0-9.412-7.654-17.067-17.067-17.067     c-9.404,0-17.067,7.654-17.067,17.067C102.4,163.012,110.063,170.667,119.467,170.667z"/><path d="M85.333,102.4c0-9.412-7.654-17.067-17.067-17.067c-9.404,0-17.067,7.654-17.067,17.067     c0,9.412,7.663,17.067,17.067,17.067C77.679,119.467,85.333,111.812,85.333,102.4z"/><path d="M366.933,187.733h-307.2c-23.518,0-42.667,19.14-42.667,42.667v76.8H8.533c-4.71,0-8.533,3.823-8.533,8.533v51.2     c0,4.71,3.823,8.533,8.533,8.533h8.533v76.8c0,23.526,19.149,42.667,42.667,42.667h128v8.533c0,4.71,3.823,8.533,8.533,8.533     c4.719,0,8.533-3.823,8.533-8.533V486.4c0-4.71-3.814-8.533-8.533-8.533H59.733c-14.114,0-25.6-11.486-25.6-25.6v-85.333     c0-4.71-3.814-8.533-8.533-8.533h-8.533v-34.133H25.6c4.719,0,8.533-3.823,8.533-8.533V230.4c0-14.114,11.486-25.6,25.6-25.6     h307.2c14.123,0,25.6,11.486,25.6,25.6v221.867c0,14.114-11.477,25.6-25.6,25.6H230.4c-4.71,0-8.533,3.823-8.533,8.533     s3.823,8.533,8.533,8.533h136.533c23.526,0,42.667-19.14,42.667-42.667V230.4C409.6,206.874,390.46,187.733,366.933,187.733z"/><path d="M170.667,324.267c9.412,0,17.067,7.654,17.067,17.067c0,4.71,3.823,8.533,8.533,8.533c4.719,0,8.533-3.823,8.533-8.533     c0-18.825-15.3-34.133-34.133-34.133c-18.825,0-34.133,15.309-34.133,34.133c0,18.825,15.309,34.133,34.133,34.133H256     c18.833,0,34.133-15.309,34.133-34.133c0-18.825-15.3-34.133-34.133-34.133c-18.825,0-34.133,15.309-34.133,34.133     c0,4.71,3.823,8.533,8.533,8.533c4.719,0,8.533-3.823,8.533-8.533c0-9.412,7.663-17.067,17.067-17.067     c9.412,0,17.067,7.654,17.067,17.067c0,9.412-7.654,17.067-17.067,17.067h-85.333c-9.404,0-17.067-7.654-17.067-17.067     C153.6,331.921,161.263,324.267,170.667,324.267z"/><path d="M187.733,102.4c0-9.412-7.654-17.067-17.067-17.067c-9.404,0-17.067,7.654-17.067,17.067     c0,9.412,7.663,17.067,17.067,17.067C180.079,119.467,187.733,111.812,187.733,102.4z"/><path d="M307.2,0c-41.967,0-78.063,25.395-93.867,61.594C197.538,25.395,161.434,0,119.467,0c-56.465,0-102.4,45.935-102.4,102.4     c0,23.748,8.32,46.899,23.424,65.169c2.995,3.635,8.371,4.147,12.006,1.143s4.147-8.38,1.143-12.015     c-12.578-15.224-19.507-34.509-19.507-54.298c0-47.053,38.289-85.333,85.333-85.333c47.053,0,85.333,38.281,85.333,85.333     c0,19.789-6.921,39.074-19.499,54.298c-3.004,3.635-2.492,9.011,1.143,12.015c1.596,1.314,3.516,1.954,5.427,1.954     c2.458,0,4.898-1.058,6.579-3.098c6.144-7.433,11.093-15.693,14.882-24.439c3.797,8.747,8.747,17.007,14.891,24.439     c2.987,3.635,8.363,4.147,12.006,1.143c3.635-3.004,4.147-8.38,1.143-12.015c-12.578-15.224-19.507-34.509-19.507-54.298     c0-47.053,38.289-85.333,85.333-85.333c47.053,0,85.333,38.281,85.333,85.333c0,19.789-6.921,39.074-19.499,54.298     c-3.004,3.635-2.492,9.011,1.143,12.015c1.596,1.314,3.516,1.954,5.427,1.954c2.458,0,4.898-1.058,6.579-3.098     c15.104-18.27,23.415-41.421,23.415-65.169C409.6,45.935,363.674,0,307.2,0z"/><path d="M375.467,102.4c0-9.412-7.654-17.067-17.067-17.067c-9.404,0-17.067,7.654-17.067,17.067     c0,9.412,7.663,17.067,17.067,17.067C367.812,119.467,375.467,111.812,375.467,102.4z"/><path d="M503.996,249.677c-5.069-3.004-11.213-2.944-17.007,0.222l-56.004,31.872c-4.096,2.321-5.53,7.535-3.2,11.631     c2.338,4.096,7.561,5.521,11.639,3.2l55.509-31.497v167.851l-55.492-31.71c-4.105-2.355-9.31-0.922-11.648,3.174     c-2.338,4.087-0.913,9.301,3.174,11.639l55.791,31.881c2.543,1.544,5.393,2.33,8.269,2.33c2.816,0,5.666-0.742,8.311-2.227     c5.265-2.961,8.661-8.371,8.661-13.79V263.586C512,258.014,508.86,252.561,503.996,249.677z"/><path d="M307.371,93.867c-4.71,0-8.482,3.823-8.482,8.533c0,4.71,3.857,8.533,8.576,8.533c4.702,0,8.533-3.823,8.533-8.533     c0-4.71-3.831-8.533-8.533-8.533H307.371z"/><path d="M324.267,51.2c0-9.412-7.654-17.067-17.067-17.067c-9.404,0-17.067,7.654-17.067,17.067     c0,9.412,7.663,17.067,17.067,17.067C316.612,68.267,324.267,60.612,324.267,51.2z"/><path d="M307.2,170.667c9.412,0,17.067-7.654,17.067-17.067c0-9.412-7.654-17.067-17.067-17.067     c-9.404,0-17.067,7.654-17.067,17.067C290.133,163.012,297.796,170.667,307.2,170.667z"/><path d="M273.067,102.4c0-9.412-7.654-17.067-17.067-17.067c-9.404,0-17.067,7.654-17.067,17.067     c0,9.412,7.663,17.067,17.067,17.067C265.412,119.467,273.067,111.812,273.067,102.4z"/></g><g transform="matrix(0.1171875 0 0 0.1171875 280.0000004291535 163)" id="L1_19"><path d="M256.256,213.333h-0.085c-4.71,0-8.491,3.823-8.491,8.533c0,4.71,3.866,8.533,8.576,8.533     c4.719,0,8.533-3.823,8.533-8.533C264.789,217.156,260.975,213.333,256.256,213.333z"/><path d="M256.256,110.933h-0.085c-4.71,0-8.491,3.823-8.491,8.533s3.866,8.533,8.576,8.533c4.719,0,8.533-3.823,8.533-8.533     S260.975,110.933,256.256,110.933z"/><path d="M205.056,264.533h-0.085c-4.71,0-8.491,3.823-8.491,8.533s3.866,8.533,8.576,8.533c4.719,0,8.533-3.823,8.533-8.533     S209.775,264.533,205.056,264.533z"/><path d="M205.056,162.133h-0.085c-4.71,0-8.491,3.823-8.491,8.533s3.866,8.533,8.576,8.533c4.719,0,8.533-3.823,8.533-8.533     S209.775,162.133,205.056,162.133z"/><path d="M205.056,76.8h-0.085c-4.71,0-8.491,3.823-8.491,8.533c0,4.71,3.866,8.533,8.576,8.533c4.719,0,8.533-3.823,8.533-8.533     C213.589,80.623,209.775,76.8,205.056,76.8z"/><path d="M307.456,76.8h-0.085c-4.71,0-8.491,3.823-8.491,8.533c0,4.71,3.866,8.533,8.576,8.533s8.533-3.823,8.533-8.533     C315.989,80.623,312.166,76.8,307.456,76.8z"/><path d="M469.333,238.933h-51.2c-4.719,0-8.533,3.823-8.533,8.533s3.814,8.533,8.533,8.533H460.8v110.933     c0,14.114-11.486,25.6-25.6,25.6H76.8c-14.114,0-25.6-11.486-25.6-25.6V256h34.133h0.009c1.126,0,2.202-0.239,3.2-0.648     c0.35-0.145,0.614-0.401,0.939-0.58c0.606-0.35,1.203-0.674,1.707-1.152c0.316-0.29,0.512-0.666,0.777-1.007     c0.393-0.503,0.785-0.981,1.05-1.562c0.205-0.418,0.273-0.887,0.401-1.34c0.128-0.469,0.358-0.896,0.41-1.391l8.533-85.333     c0.239-2.406-0.546-4.787-2.167-6.579c-1.613-1.783-3.908-2.807-6.323-2.807h-3.132l3.063-24.542     c0.589-4.676-2.731-8.943-7.407-9.523c-4.676-0.597-8.943,2.731-9.523,7.407L73.532,153.6H42.667     c-2.415,0-4.71,1.024-6.332,2.807c-1.613,1.792-2.398,4.173-2.159,6.579l5.12,51.2c0.469,4.685,4.685,8.149,9.344,7.637     c4.685-0.469,8.107-4.651,7.637-9.344l-4.181-41.813h32.341l-6.827,68.267H42.667c-4.71,0-8.533,3.823-8.533,8.533v119.467     c0,23.526,19.14,42.667,42.667,42.667h358.4c23.526,0,42.667-19.14,42.667-42.667V247.467     C477.867,242.756,474.052,238.933,469.333,238.933z"/><path d="M307.456,264.533h-0.085c-4.71,0-8.491,3.823-8.491,8.533s3.866,8.533,8.576,8.533s8.533-3.823,8.533-8.533     S312.166,264.533,307.456,264.533z"/><path d="M332.8,494.933h-42.667V435.2c0-4.71-3.814-8.533-8.533-8.533c-4.719,0-8.533,3.823-8.533,8.533v59.733h-34.133V435.2     c0-4.71-3.823-8.533-8.533-8.533c-4.71,0-8.533,3.823-8.533,8.533v59.733H179.2c-4.71,0-8.533,3.823-8.533,8.533     S174.49,512,179.2,512h153.6c4.719,0,8.533-3.823,8.533-8.533S337.519,494.933,332.8,494.933z"/><path d="M307.456,162.133h-0.085c-4.71,0-8.491,3.823-8.491,8.533s3.866,8.533,8.576,8.533s8.533-3.823,8.533-8.533     S312.166,162.133,307.456,162.133z"/><path d="M110.933,341.333h290.133c4.719,0,8.533-3.823,8.533-8.533c0-4.71-3.814-8.533-8.533-8.533h-8.533v-281.6     C392.533,19.14,373.393,0,349.867,0H162.133c-23.526,0-42.667,19.14-42.667,42.667v281.6h-8.533c-4.71,0-8.533,3.823-8.533,8.533     C102.4,337.51,106.223,341.333,110.933,341.333z M136.533,42.667c0-14.114,11.486-25.6,25.6-25.6h187.733     c14.114,0,25.6,11.486,25.6,25.6v281.6H136.533V42.667z"/></g><g transform="matrix(0.1171875 0 0 0.1171875 97 -18.99999958515167)" id="L1_20"><path d="M418.133,366.933H17.067V76.8H51.2v264.533c0,4.71,3.823,8.533,8.533,8.533s8.533-3.823,8.533-8.533V68.267     c0-4.71-3.823-8.533-8.533-8.533h-51.2C3.823,59.733,0,63.556,0,68.267v307.2C0,380.177,3.823,384,8.533,384h409.6     c4.719,0,8.533-3.823,8.533-8.533S422.852,366.933,418.133,366.933z"/><path d="M318.234,139.034c-3.336,3.337-3.336,8.73,0,12.066l51.2,51.2c1.664,1.664,3.849,2.5,6.033,2.5     c2.185,0,4.369-0.836,6.033-2.5c3.337-3.337,3.337-8.73,0-12.066l-51.2-51.2C326.963,135.697,321.57,135.697,318.234,139.034z"/><path d="M332.8,435.2h-68.267v-25.6c0-4.71-3.823-8.533-8.533-8.533s-8.533,3.823-8.533,8.533v25.6H179.2     c-4.71,0-8.533,3.823-8.533,8.533s3.823,8.533,8.533,8.533h153.6c4.719,0,8.533-3.823,8.533-8.533S337.519,435.2,332.8,435.2z"/><path d="M290.133,170.667c2.185,0,4.369-0.836,6.033-2.5c3.336-3.337,3.336-8.73,0-12.066l-8.533-8.533     c-3.337-3.336-8.73-3.336-12.066,0c-3.337,3.337-3.337,8.73,0,12.066l8.533,8.533     C285.764,169.83,287.949,170.667,290.133,170.667z"/><path d="M384,162.133c2.185,0,4.369-0.836,6.033-2.5c3.337-3.337,3.337-8.73,0-12.066L372.966,130.5     c-3.337-3.336-8.73-3.336-12.066,0c-3.336,3.337-3.336,8.73,0,12.066l17.067,17.067C379.631,161.297,381.815,162.133,384,162.133     z"/><path d="M503.467,59.733h-409.6c-4.71,0-8.533,3.823-8.533,8.533s3.823,8.533,8.533,8.533h401.067v290.133H460.8V102.4     c0-4.71-3.814-8.533-8.533-8.533c-4.719,0-8.533,3.823-8.533,8.533v273.067c0,4.71,3.814,8.533,8.533,8.533h51.2     c4.719,0,8.533-3.823,8.533-8.533v-307.2C512,63.556,508.186,59.733,503.467,59.733z"/><path d="M309.7,193.766l42.667,42.667c1.664,1.664,3.849,2.5,6.033,2.5c2.185,0,4.369-0.836,6.033-2.5     c3.336-3.336,3.336-8.73,0-12.066L321.766,181.7c-3.337-3.337-8.73-3.337-12.066,0C306.364,185.037,306.364,190.43,309.7,193.766     z"/></g><g transform="matrix(0.1171875 0 0 0.1171875 273 -16.99999834060668)" id="L1_21"><path d="M469.333,68.267H307.2v-25.6c0-4.71-3.823-8.533-8.533-8.533s-8.533,3.823-8.533,8.533v25.6H170.667     c-4.71,0-8.533,3.823-8.533,8.533s3.823,8.533,8.533,8.533h298.667c14.114,0,25.6,11.486,25.6,25.6v384H153.6v-384     c0-23.526-19.14-42.667-42.667-42.667c-9.643,0-18.449,3.337-25.6,8.747V42.667c0-4.71-3.823-8.533-8.533-8.533     s-8.533,3.823-8.533,8.533v25.6h-25.6c-4.71,0-8.533,3.823-8.533,8.533s3.823,8.533,8.533,8.533h25.6v25.6v8.533h-25.6     c-4.71,0-8.533,3.823-8.533,8.533s3.823,8.533,8.533,8.533h25.6v34.133h-25.6c-4.71,0-8.533,3.823-8.533,8.533     s3.823,8.533,8.533,8.533h25.6v34.133h-25.6c-4.71,0-8.533,3.823-8.533,8.533s3.823,8.533,8.533,8.533h25.6v34.133h-25.6     c-4.71,0-8.533,3.823-8.533,8.533s3.823,8.533,8.533,8.533h25.6v34.133h-25.6c-4.71,0-8.533,3.823-8.533,8.533     c0,4.71,3.823,8.533,8.533,8.533h25.6v34.133h-25.6c-4.71,0-8.533,3.823-8.533,8.533s3.823,8.533,8.533,8.533h25.6v8.533     c0,14.114-11.486,25.6-25.6,25.6s-25.6-11.486-25.6-25.6v-384H358.4v25.6c0,4.71,3.823,8.533,8.533,8.533     s8.533-3.823,8.533-8.533V8.533c0-4.71-3.823-8.533-8.533-8.533H8.533C3.823,0,0,3.823,0,8.533v392.533     c0,23.526,19.14,42.667,42.667,42.667c23.526,0,42.667-19.14,42.667-42.667V110.933c0-14.114,11.486-25.6,25.6-25.6     s25.6,11.486,25.6,25.6v315.733H93.867c-4.71,0-8.533,3.823-8.533,8.533s3.823,8.533,8.533,8.533h42.667v59.733     c0,4.71,3.823,8.533,8.533,8.533h358.4c4.71,0,8.533-3.823,8.533-8.533V110.933C512,87.407,492.86,68.267,469.333,68.267z"/><path d="M179.2,443.733c-4.71,0-8.533,3.823-8.533,8.533c0,4.71,3.823,8.533,8.533,8.533h25.6v8.533     c0,4.71,3.823,8.533,8.533,8.533c4.71,0,8.533-3.823,8.533-8.533V204.8h179.2c4.71,0,8.533-3.823,8.533-8.533     s-3.823-8.533-8.533-8.533h-179.2v-76.8c0-4.71-3.823-8.533-8.533-8.533c-4.71,0-8.533,3.823-8.533,8.533v25.6h-25.6     c-4.71,0-8.533,3.823-8.533,8.533c0,4.71,3.823,8.533,8.533,8.533h25.6v34.133h-25.6c-4.71,0-8.533,3.823-8.533,8.533     s3.823,8.533,8.533,8.533h25.6v34.133h-25.6c-4.71,0-8.533,3.823-8.533,8.533S174.49,256,179.2,256h25.6v34.133h-25.6     c-4.71,0-8.533,3.823-8.533,8.533s3.823,8.533,8.533,8.533h25.6v34.133h-25.6c-4.71,0-8.533,3.823-8.533,8.533     s3.823,8.533,8.533,8.533h25.6v34.133h-25.6c-4.71,0-8.533,3.823-8.533,8.533s3.823,8.533,8.533,8.533h25.6v34.133H179.2z"/><path d="M435.2,102.4c-4.71,0-8.533,3.823-8.533,8.533v281.6h-179.2c-4.71,0-8.533,3.823-8.533,8.533s3.823,8.533,8.533,8.533     h179.2v59.733c0,4.71,3.823,8.533,8.533,8.533s8.533-3.823,8.533-8.533V460.8h25.6c4.71,0,8.533-3.823,8.533-8.533     c0-4.71-3.823-8.533-8.533-8.533h-25.6V409.6h25.6c4.71,0,8.533-3.823,8.533-8.533s-3.823-8.533-8.533-8.533h-25.6V358.4h25.6     c4.71,0,8.533-3.823,8.533-8.533s-3.823-8.533-8.533-8.533h-25.6V307.2h25.6c4.71,0,8.533-3.823,8.533-8.533     s-3.823-8.533-8.533-8.533h-25.6V256h25.6c4.71,0,8.533-3.823,8.533-8.533s-3.823-8.533-8.533-8.533h-25.6V204.8h25.6     c4.71,0,8.533-3.823,8.533-8.533s-3.823-8.533-8.533-8.533h-25.6V153.6h25.6c4.71,0,8.533-3.823,8.533-8.533     c0-4.71-3.823-8.533-8.533-8.533h-25.6v-25.6C443.733,106.223,439.91,102.4,435.2,102.4z"/></g></defs><g fi:class="KUsePattern"><pattern id="pattern_L1_14" width="350" height="350" patternUnits="userSpaceOnUse"><use xlink:href="#L1_14" x="-350" y="-350"/><use xlink:href="#L1_14" x="0" y="-350"/><use xlink:href="#L1_14" x="350" y="-350"/><use xlink:href="#L1_14" x="-350" y="0"/><use xlink:href="#L1_14" x="0" y="0"/><use xlink:href="#L1_14" x="350" y="0"/><use xlink:href="#L1_14" x="-350" y="350"/><use xlink:href="#L1_14" x="0" y="350"/><use xlink:href="#L1_14" x="350" y="350"/></pattern><rect x="0" y="0" width="100%" height="100%" fill="url(#pattern_L1_14)"/></g><g fi:class="KUsePattern"><pattern id="pattern_L1_15" width="350" height="350" patternUnits="userSpaceOnUse"><use xlink:href="#L1_15" x="-350" y="-350"/><use xlink:href="#L1_15" x="0" y="-350"/><use xlink:href="#L1_15" x="350" y="-350"/><use xlink:href="#L1_15" x="-350" y="0"/><use xlink:href="#L1_15" x="0" y="0"/><use xlink:href="#L1_15" x="350" y="0"/><use xlink:href="#L1_15" x="-350" y="350"/><use xlink:href="#L1_15" x="0" y="350"/><use xlink:href="#L1_15" x="350" y="350"/></pattern><rect x="0" y="0" width="100%" height="100%" fill="url(#pattern_L1_15)"/></g><g fi:class="KUsePattern"><pattern id="pattern_L1_16" width="350" height="350" patternUnits="userSpaceOnUse"><use xlink:href="#L1_16" x="-350" y="-350"/><use xlink:href="#L1_16" x="0" y="-350"/><use xlink:href="#L1_16" x="350" y="-350"/><use xlink:href="#L1_16" x="-350" y="0"/><use xlink:href="#L1_16" x="0" y="0"/><use xlink:href="#L1_16" x="350" y="0"/><use xlink:href="#L1_16" x="-350" y="350"/><use xlink:href="#L1_16" x="0" y="350"/><use xlink:href="#L1_16" x="350" y="350"/></pattern><rect x="0" y="0" width="100%" height="100%" fill="url(#pattern_L1_16)"/></g><g fi:class="KUsePattern"><pattern id="pattern_L1_17" width="350" height="350" patternUnits="userSpaceOnUse"><use xlink:href="#L1_17" x="-350" y="-350"/><use xlink:href="#L1_17" x="0" y="-350"/><use xlink:href="#L1_17" x="350" y="-350"/><use xlink:href="#L1_17" x="-350" y="0"/><use xlink:href="#L1_17" x="0" y="0"/><use xlink:href="#L1_17" x="350" y="0"/><use xlink:href="#L1_17" x="-350" y="350"/><use xlink:href="#L1_17" x="0" y="350"/><use xlink:href="#L1_17" x="350" y="350"/></pattern><rect x="0" y="0" width="100%" height="100%" fill="url(#pattern_L1_17)"/></g><g fi:class="KUsePattern"><pattern id="pattern_L1_18" width="350" height="350" patternUnits="userSpaceOnUse"><use xlink:href="#L1_18" x="-350" y="-350"/><use xlink:href="#L1_18" x="0" y="-350"/><use xlink:href="#L1_18" x="350" y="-350"/><use xlink:href="#L1_18" x="-350" y="0"/><use xlink:href="#L1_18" x="0" y="0"/><use xlink:href="#L1_18" x="350" y="0"/><use xlink:href="#L1_18" x="-350" y="350"/><use xlink:href="#L1_18" x="0" y="350"/><use xlink:href="#L1_18" x="350" y="350"/></pattern><rect x="0" y="0" width="100%" height="100%" fill="url(#pattern_L1_18)"/></g><g fi:class="KUsePattern"><pattern id="pattern_L1_19" width="350" height="350" patternUnits="userSpaceOnUse"><use xlink:href="#L1_19" x="-350" y="-350"/><use xlink:href="#L1_19" x="0" y="-350"/><use xlink:href="#L1_19" x="350" y="-350"/><use xlink:href="#L1_19" x="-350" y="0"/><use xlink:href="#L1_19" x="0" y="0"/><use xlink:href="#L1_19" x="350" y="0"/><use xlink:href="#L1_19" x="-350" y="350"/><use xlink:href="#L1_19" x="0" y="350"/><use xlink:href="#L1_19" x="350" y="350"/></pattern><rect x="0" y="0" width="100%" height="100%" fill="url(#pattern_L1_19)"/></g><g fi:class="KUsePattern"><pattern id="pattern_L1_20" width="350" height="350" patternUnits="userSpaceOnUse"><use xlink:href="#L1_20" x="-350" y="-350"/><use xlink:href="#L1_20" x="0" y="-350"/><use xlink:href="#L1_20" x="350" y="-350"/><use xlink:href="#L1_20" x="-350" y="0"/><use xlink:href="#L1_20" x="0" y="0"/><use xlink:href="#L1_20" x="350" y="0"/><use xlink:href="#L1_20" x="-350" y="350"/><use xlink:href="#L1_20" x="0" y="350"/><use xlink:href="#L1_20" x="350" y="350"/></pattern><rect x="0" y="0" width="100%" height="100%" fill="url(#pattern_L1_20)"/></g><g fi:class="KUsePattern"><pattern id="pattern_L1_21" width="350" height="350" patternUnits="userSpaceOnUse"><use xlink:href="#L1_21" x="-350" y="-350"/><use xlink:href="#L1_21" x="0" y="-350"/><use xlink:href="#L1_21" x="350" y="-350"/><use xlink:href="#L1_21" x="-350" y="0"/><use xlink:href="#L1_21" x="0" y="0"/><use xlink:href="#L1_21" x="350" y="0"/><use xlink:href="#L1_21" x="-350" y="350"/><use xlink:href="#L1_21" x="0" y="350"/><use xlink:href="#L1_21" x="350" y="350"/></pattern><rect x="0" y="0" width="100%" height="100%" fill="url(#pattern_L1_21)"/></g></svg>